<?xml version="1.0" encoding="utf-8"?>
<!-- Generator: Adobe Illustrator 23.0.6, SVG Export Plug-In . SVG Version: 6.00 Build 0)  -->
<svg version="1.0" xmlns="http://www.w3.org/2000/svg"
 width="1024.000000pt" height="1024.000000pt" viewBox="0 0 1024.000000 1024.000000"
 preserveAspectRatio="xMidYMid meet">
<g transform="translate(0.000000,1024.000000) scale(0.100000,-0.100000)" fill="#000000" stroke="none">
	<path d="M4276,8622c-4-28-12-42-31-50c-31-14-95-15-150-2c-38,9-42,7-77-27c-47-45-39-69,26-78c40-6,46-11,59-44c8-20,14-37,13-39
		c-2-1-22,5-46,13c-57,20-89,19-173-6c-40-12-73-23-74-23c-1-1,2-19,8-39c8-30,6-45-16-96c-14-33-25-70-25-81s-1-20-2-20
		c-2,0-70-13-153-30c-82-16-161-30-174-30c-32,0-102-59-137-113c-25-41-32-45-83-53s-57-12-78-49c-19-33-23-55-23-130
		c0-87,1-92,35-142c21-32,35-64,35-83c0-17,5-51,11-76c9-33,17-46,35-50l24-6l-28-27c-15-14-35-37-45-50l-16-24l-63,18
		c-43,12-118,20-233,25c-105,5-210,16-275,29c-129,26-224,27-321,2c-143-36-141-36-185,7c-117,115-158,173-190,270
		c-26,78-38,99-70,125c-21,18-46,39-56,47c-12,10-24,46-34,100l-17,85l-95,90c-53,50-132,112-176,139c-89,54-306,161-348,171
		c-17,4-65-4-135-24c-89-25-127-31-210-31c-96,0-105-2-185-38c-45-21-112-44-147-51c-62-12-69-17-255-173C91,7969,4,7894,3,7891
		c-2-3,12-16,31-29c28-19,34-31,39-68c2-25-1-65-9-89l-13-45l48-52c75-84,109-135,116-181c4-23,20-90,36-149c37-138,37-168-1-223
		c-25-36-33-62-41-132c-10-76-15-92-49-137c-25-34-45-78-60-131c-20-70-21-87-11-147c6-37,11-103,11-147c0-47,4-83,11-87
		c6-3,29-34,51-68l40-61l-6,54c-6,49-6,53,11,45c10-4,68-10,128-14c121-6,275-49,275-75c0-8-9-37-20-65c-26-66-26-123,1-159
		c20-27,20-30,4-55c-15-23-24-26-76-26c-57,0-59,1-59,26c0,14,5,34,11,45c24,45,0,36-66-24c-50-45-78-81-98-123l-27-59l39-100
		l40-100v67l1,67l33-10c17-5,54-14,81-19c118-24,121-25,149-88c14-31,28-68,32-82c6-22,36-77,64-120c6-9,33-17,68-20
		c53-5,58-7,61-30c2-14,21-41,44-61l40-37l-27-83c-20-60-41-99-71-134c-37-44-43-59-52-120c-5-39-6-95-1-125c14-98,9-185-16-310
		c-31-153-33-284-5-445c11-64,20-141,20-170c0-43,4-55,18-58c79-22,141-31,223-31c95-1,98,0,180,42c48,25,104,46,130,49
		c87,10,129,78,129,209c0,43,1,45,44,64c31,13,50,30,67,59c18,32,36,47,86,70c35,17,90,51,123,76l60,46l143,18c123,15,147,16,182,4
		c22-8,85-18,140-23c229-21,299-7,319,65c9,31,22,47,61,72c35,23,56,31,70,26c11-4,63-7,115-8c82-1,102-5,146-27c27-15,67-30,88-33
		c32-7,42-3,76,24c23,18,50,31,67,31c26,0,33-8,71-85c23-47,42-97,42-110c0-69,71-109,274-155c72-16,176-46,231-68l99-39l12-48
		c14-55,17-58,63-74c58-19,117-14,163,15l42,27l54-17c45-15,61-16,100-6c45,12,49,11,102-20c30-18,78-41,107-51c29-9,69-29,90-43
		c27-19,51-26,85-26h48v-62c0-54,7-76,43-148c37-75,48-88,87-107c25-13,53-32,62-44c15-18,27-20,98-18l80,2l23-34c17-26,33-35,67-42
		c59-12,77-29,112-107c45-100,87-159,123-174c19-8,37-26,44-44c7-16,22-33,34-36s142-6,289-6h267l15-52c8-29,17-93,21-143
		c3-49,12-121,20-160c13-64,12-79-8-184c-22-113-22-114-2-127c59-39,58-37,61-129c2-48,6-100,9-116c6-26,10-29,49-29
		c40,0,46-4,96-62c68-82,104-106,179-124c57-13,69-12,134,4c99,25,158,14,188-34c11-19,35-42,52-50c53-27,76-54,92-110
		c9-30,19-54,24-54s45,36,89,81l81,80l50-25c31-16,67-26,95-26c41,0,49,5,132,82c49,46,110,94,137,108c44,24,47,27,47,66
		c0,23,3,62,6,87c6,43,8,46,51,58l44,12l-50,51c-31,31-53,64-57,84l-6,32l45-6c38-6,61-1,139,31c51,20,116,50,144,66s64,29,80,29
		s54,10,84,22c31,12,88,24,130,28c81,5,79,4,67,70c-5,22,1,28,56,53c34,15,74,27,90,27c17,0,27,5,27,15c0,8,19,23,43,33
		c32,14,56,37,89,83c95,135,98,143,98,266v111l50,112c39,88,50,123,50,165c0,29,3,73,6,99c7,46,7,46,93,92c81,44,90,47,154,45
		c37-1,91,4,120,13c28,8,82,20,118,26l67,12l21,71c12,40,21,83,21,95c0,30,46,95,81,116c25,15,28,15,42-7c9-14,37-30,73-41
		c33-10,82-31,111-47c59-33,177-61,243-59c71,2,103,26,113,85c6,33,4,63-3,88c-8,29-8,51,0,90c8,34,9,64,3,87c-12,46,3,118,31,150
		c49,55,49,56,27,97c-22,45-55,63-111,63c-28,0-67,14-132,49c-51,27-107,52-124,56c-17,3-42,17-55,31c-28,30-76,44-151,44
		c-50,0-59-3-81-30c-14-16-32-30-39-30c-52,0-235,97-453,239c-71,46-182,109-245,139c-112,54-186,105-322,225l-66,59l-56-18l-55-17
		l-181,109c-173,104-183,113-246,192c-60,75-75,87-153,127c-47,24-102,60-121,80c-38,41-328,235-462,310c-77,43-87,52-111,101
		c-18,37-27,71-27,104c0,37-7,60-30,97c-17,27-33,67-36,89c-3,21-15,60-26,86c-18,40-27,49-72,66c-46,17-51,22-54,52
		c-2,19-16,52-31,74c-60,88-101,183-102,238c0,29-8,75-17,101c-38,107-203,257-283,257c-20,0-56,7-79,15s-44,15-45,15
		c-2,0-6-20-9-44c-10-61-42-83-100-66c-23,6-58,22-78,36c-45,29-50,29-73,4c-17-18-19-18-49-3c-52,28-133,33-195,12
		c-104-36-190-5-359,129c-37,30-41,37-36,65c4,18,15,51,26,75l20,43l-31,70c-35,79-37,91-16,109c13,11,23,9,56-9c22-13,43-21,45-18
		c3,3,2,21-1,40c-6,29-19,44-83,90c-43,30-95,60-116,67l-40,13l22,18c12,9,27,19,32,21c6,2,5,17-2,41c-10,33-9,43,6,71
		c16,30,16,36,3,62c-27,53-90,91-184,114c-48,11-58,10-108-11l-55-23l-87,30l-88,29l-3,41c-2,33-11,49-46,83c-38,37-47,41-64,32
		c-11-6-40-11-64-11c-42,0-47,4-163,120c-66,66-123,120-126,120C4285,8660,4280,8643,4276,8622z"/>
</g>
</svg>
